<?xml version="1.0" encoding="iso-8859-1"?>
<!-- Generator: Adobe Illustrator 19.0.0, SVG Export Plug-In . SVG Version: 6.00 Build 0)  -->
<svg version="1.1" id="Capa_1" xmlns="http://www.w3.org/2000/svg" xmlns:xlink="http://www.w3.org/1999/xlink" x="0px" y="0px"
	 viewBox="0 0 512 512" style="enable-background:new 0 0 512 512;" xml:space="preserve">
<path style="fill:#B0C4D8;" d="M488.727,448H23.273C10.473,448,0,437.527,0,424.727v-384c0-12.8,10.473-23.273,23.273-23.273
	h465.455c12.8,0,23.273,10.473,23.273,23.273v384C512,437.527,501.527,448,488.727,448z"/>
<rect x="23.273" y="87.273" style="fill:#ECEFF9;" width="465.455" height="337.455"/>
<g>
	<path style="fill:#D5E3EF;" d="M64,261.818h93.091c3.491,0,5.818,2.327,5.818,5.818l0,0c0,3.491-2.327,5.818-5.818,5.818H64
		c-3.491,0-5.818-2.327-5.818-5.818l0,0C58.182,264.145,60.509,261.818,64,261.818z"/>
	<path style="fill:#D5E3EF;" d="M64,285.091h69.818c3.491,0,5.818,2.327,5.818,5.818l0,0c0,3.491-2.327,5.818-5.818,5.818H64
		c-3.491,0-5.818-2.327-5.818-5.818l0,0C58.182,287.418,60.509,285.091,64,285.091z"/>
	<path style="fill:#D5E3EF;" d="M64,308.364h69.818c3.491,0,5.818,2.327,5.818,5.818l0,0c0,3.491-2.327,5.818-5.818,5.818H64
		c-3.491,0-5.818-2.327-5.818-5.818l0,0C58.182,310.691,60.509,308.364,64,308.364z"/>
	<path style="fill:#D5E3EF;" d="M64,331.636h69.818c3.491,0,5.818,2.327,5.818,5.818l0,0c0,3.491-2.327,5.818-5.818,5.818H64
		c-3.491,0-5.818-2.327-5.818-5.818l0,0C58.182,333.964,60.509,331.636,64,331.636z"/>
	<path style="fill:#D5E3EF;" d="M64,354.909h69.818c3.491,0,5.818,2.327,5.818,5.818l0,0c0,3.491-2.327,5.818-5.818,5.818H64
		c-3.491,0-5.818-2.327-5.818-5.818l0,0C58.182,357.236,60.509,354.909,64,354.909z"/>
	<path style="fill:#D5E3EF;" d="M64,378.182h69.818c3.491,0,5.818,2.327,5.818,5.818l0,0c0,3.491-2.327,5.818-5.818,5.818H64
		c-3.491,0-5.818-2.327-5.818-5.818l0,0C58.182,380.509,60.509,378.182,64,378.182z"/>
	<path style="fill:#D5E3EF;" d="M360.727,261.818H448c3.491,0,5.818,2.327,5.818,5.818l0,0c0,3.491-2.327,5.818-5.818,5.818h-87.273
		c-3.491,0-5.818-2.327-5.818-5.818l0,0C354.909,264.145,357.236,261.818,360.727,261.818z"/>
	<path style="fill:#D5E3EF;" d="M378.182,285.091H448c3.491,0,5.818,2.327,5.818,5.818l0,0c0,3.491-2.327,5.818-5.818,5.818h-69.818
		c-3.491,0-5.818-2.327-5.818-5.818l0,0C372.364,287.418,374.691,285.091,378.182,285.091z"/>
	<path style="fill:#D5E3EF;" d="M378.182,308.364H448c3.491,0,5.818,2.327,5.818,5.818l0,0c0,3.491-2.327,5.818-5.818,5.818h-69.818
		c-3.491,0-5.818-2.327-5.818-5.818l0,0C372.364,310.691,374.691,308.364,378.182,308.364z"/>
	<path style="fill:#D5E3EF;" d="M378.182,331.636H448c3.491,0,5.818,2.327,5.818,5.818l0,0c0,3.491-2.327,5.818-5.818,5.818h-69.818
		c-3.491,0-5.818-2.327-5.818-5.818l0,0C372.364,333.964,374.691,331.636,378.182,331.636z"/>
	<path style="fill:#D5E3EF;" d="M378.182,354.909H448c3.491,0,5.818,2.327,5.818,5.818l0,0c0,3.491-2.327,5.818-5.818,5.818h-69.818
		c-3.491,0-5.818-2.327-5.818-5.818l0,0C372.364,357.236,374.691,354.909,378.182,354.909z"/>
	<path style="fill:#D5E3EF;" d="M378.182,378.182H448c3.491,0,5.818,2.327,5.818,5.818l0,0c0,3.491-2.327,5.818-5.818,5.818h-69.818
		c-3.491,0-5.818-2.327-5.818-5.818l0,0C372.364,380.509,374.691,378.182,378.182,378.182z"/>
</g>
<path style="fill:#99B4CD;" d="M397.964,276.945c2.327,2.327,5.818,3.491,9.309,3.491s5.818-1.164,9.309-3.491
	c4.655-4.655,4.655-12.8,0-17.455l-24.436-24.436c-4.655-4.655-12.8-4.655-17.455,0c-4.655,4.655-4.655,12.8,0,17.455l3.491,3.491
	l-10.473,10.473c-23.273-19.782-52.364-32.582-83.782-34.909v-25.6h12.8c6.982,0,12.8-5.818,12.8-12.8c0-6.982-5.818-12.8-12.8-12.8
	h-52.364c-6.982,0-12.8,5.818-12.8,12.8c0,6.982,5.818,12.8,12.8,12.8h12.8v25.6c-31.418,2.327-60.509,15.127-83.782,34.909
	L162.909,256l3.491-3.491c4.655-4.655,4.655-12.8,0-17.455s-12.8-4.655-17.455,0l-24.436,24.436c-4.655,4.655-4.655,12.8,0,17.455
	c2.327,2.327,5.818,3.491,9.309,3.491c3.491,0,5.818-1.164,9.309-3.491l3.491-3.491l10.473,10.473
	c-22.109,25.6-34.909,59.345-34.909,96.582c0,24.436,5.818,47.709,16.291,68.655h266.473c10.473-20.945,16.291-43.055,16.291-68.655
	c0-37.236-13.964-70.982-34.909-96.582l10.473-10.473L397.964,276.945z"/>
<rect x="58.182" y="145.455" style="fill:#D5E3EF;" width="395.636" height="93.091"/>
<path style="fill:#C4D7E5;" d="M397.964,276.945c2.327,2.327,5.818,3.491,9.309,3.491s5.818-1.164,9.309-3.491
	c4.655-4.655,4.655-12.8,0-17.455l-24.436-24.436c-4.655-4.655-12.8-4.655-17.455,0c-4.655,4.655-4.655,12.8,0,17.455l3.491,3.491
	l-10.473,10.473c-23.273-19.782-52.364-32.582-83.782-34.909v-25.6h12.8c6.982,0,12.8-5.818,12.8-12.8c0-6.982-5.818-12.8-12.8-12.8
	h-52.364c-6.982,0-12.8,5.818-12.8,12.8c0,6.982,5.818,12.8,12.8,12.8h12.8v25.6c-31.418,2.327-60.509,15.127-83.782,34.909
	L162.909,256l3.491-3.491c4.655-4.655,4.655-12.8,0-17.455s-12.8-4.655-17.455,0l-24.436,24.436c-4.655,4.655-4.655,12.8,0,17.455
	c2.327,2.327,5.818,3.491,9.309,3.491c3.491,0,5.818-1.164,9.309-3.491l3.491-3.491l10.473,10.473
	c-22.109,25.6-34.909,59.345-34.909,96.582c0,15.127,2.327,30.255,6.982,45.382h285.091c4.655-13.964,6.982-29.091,6.982-45.382
	c0-37.236-13.964-70.982-34.909-96.582l10.473-10.473L397.964,276.945z"/>
<g>
	<path style="fill:#B0C4D9;" d="M365.382,265.309c-1.164-1.164-3.491-2.327-4.655-3.491l0,0c-3.491,0-5.818,2.327-5.818,5.818
		s2.327,5.818,5.818,5.818h32.582l1.164-1.164l1.164,1.164h22.109c2.327-3.491,2.327-8.145,0-11.636h-47.709L365.382,265.309z"/>
	<path style="fill:#B0C4D9;" d="M144.291,272.291L144.291,272.291l12.8,1.164c3.491,0,5.818-2.327,5.818-5.818
		s-2.327-5.818-5.818-5.818h-36.073c-2.327,3.491-2.327,8.145,0,11.636L144.291,272.291L144.291,272.291z"/>
</g>
<circle style="fill:#F04D4E;" cx="34.909" cy="52.364" r="11.636"/>
<circle style="fill:#FFCB5B;" cx="81.455" cy="52.364" r="11.636"/>
<circle style="fill:#3BB54A;" cx="128" cy="52.364" r="11.636"/>
<path style="fill:#E2E7F0;" d="M477.091,64H174.545c-6.982,0-11.636-4.655-11.636-11.636l0,0c0-6.982,4.655-11.636,11.636-11.636
	h302.545c6.982,0,11.636,4.655,11.636,11.636l0,0C488.727,59.345,484.073,64,477.091,64z"/>
<path style="fill:#B0C4D8;" d="M87.273,110.545h69.818c3.491,0,5.818,2.327,5.818,5.818l0,0c0,3.491-2.327,5.818-5.818,5.818H87.273
	c-3.491,0-5.818-2.327-5.818-5.818l0,0C81.455,112.873,83.782,110.545,87.273,110.545z"/>
<g>
	<path style="fill:#B0C4D9;" d="M385.164,285.091h-6.982c-3.491,0-5.818,2.327-5.818,5.818c0,3.491,2.327,5.818,5.818,5.818h15.127
		C390.982,293.236,387.491,288.582,385.164,285.091z"/>
	<path style="fill:#B0C4D9;" d="M400.291,308.364h-22.109c-3.491,0-5.818,2.327-5.818,5.818c0,3.491,2.327,5.818,5.818,5.818h27.927
		C404.945,316.509,402.618,311.855,400.291,308.364z"/>
	<path style="fill:#B0C4D9;" d="M410.764,331.636h-32.582c-3.491,0-5.818,2.327-5.818,5.818s2.327,5.818,5.818,5.818h36.073
		C413.091,339.782,411.927,335.127,410.764,331.636z"/>
	<path style="fill:#B0C4D9;" d="M416.582,354.909h-38.4c-3.491,0-5.818,2.327-5.818,5.818s2.327,5.818,5.818,5.818h39.564
		C417.745,363.055,417.745,358.4,416.582,354.909z"/>
	<path style="fill:#B0C4D9;" d="M372.364,384c0,3.491,2.327,5.818,5.818,5.818h40.727c0-3.491,0-6.982,0-10.473v-1.164h-40.727
		C374.691,378.182,372.364,380.509,372.364,384z"/>
</g>
<g>
	<path style="fill:#B0C4D8;" d="M424.727,110.545H448c3.491,0,5.818,2.327,5.818,5.818l0,0c0,3.491-2.327,5.818-5.818,5.818h-23.273
		c-3.491,0-5.818-2.327-5.818-5.818l0,0C418.909,112.873,421.236,110.545,424.727,110.545z"/>
	<path style="fill:#B0C4D8;" d="M378.182,110.545h23.273c3.491,0,5.818,2.327,5.818,5.818l0,0c0,3.491-2.327,5.818-5.818,5.818
		h-23.273c-3.491,0-5.818-2.327-5.818-5.818l0,0C372.364,112.873,374.691,110.545,378.182,110.545z"/>
	<path style="fill:#B0C4D8;" d="M331.636,110.545h23.273c3.491,0,5.818,2.327,5.818,5.818l0,0c0,3.491-2.327,5.818-5.818,5.818
		h-23.273c-3.491,0-5.818-2.327-5.818-5.818l0,0C325.818,112.873,328.145,110.545,331.636,110.545z"/>
	<path style="fill:#B0C4D8;" d="M64,110.545c-3.491,0-5.818,2.327-5.818,5.818l0,0c0,3.491,2.327,5.818,5.818,5.818
		c3.491,0,5.818-2.327,5.818-5.818l0,0C69.818,112.873,67.491,110.545,64,110.545z M64,114.036C64,114.036,64,112.873,64,114.036
		L64,114.036C64,112.873,64,114.036,64,114.036z"/>
</g>
<g>
	<path style="fill:#B0C4D9;" d="M147.782,233.891l-4.655,4.655h25.6c-1.164-1.164-1.164-3.491-2.327-4.655
		C160.582,229.236,153.6,229.236,147.782,233.891z"/>
	<path style="fill:#B0C4D9;" d="M221.091,238.545h97.745c-11.636-3.491-23.273-6.982-36.073-8.145v-25.6h12.8
		c6.982,0,12.8-5.818,12.8-12.8c0-6.982-5.818-12.8-12.8-12.8h-51.2c-6.982,0-12.8,5.818-12.8,12.8c0,6.982,5.818,12.8,12.8,12.8
		h12.8v25.6C244.364,231.564,231.564,235.055,221.091,238.545z"/>
	<path style="fill:#B0C4D9;" d="M372.364,233.891c-1.164,1.164-2.327,3.491-2.327,4.655h25.6l-4.655-4.655
		C385.164,229.236,377.018,229.236,372.364,233.891z"/>
</g>
<circle style="fill:#FFFFFF;" cx="256" cy="354.909" r="116.364"/>
<g>
	<circle style="fill:#595A66;" cx="256" cy="448" r="11.636"/>
	<path style="fill:#595A66;" d="M372.364,254.836l3.491,3.491c2.327,2.327,5.818,3.491,8.145,3.491c2.327,0,5.818-1.164,8.145-3.491
		c4.655-4.655,4.655-11.636,0-16.291l-23.273-23.273c-4.655-4.655-11.636-4.655-16.291,0s-4.655,11.636,0,16.291l3.491,3.491
		l-9.309,9.309c-22.109-18.618-48.873-30.255-77.964-32.582v-24.436h11.636c6.982,0,11.636-4.655,11.636-11.636
		c0-6.982-4.655-11.636-11.636-11.636h-46.545c-6.982,0-11.636,4.655-11.636,11.636c0,6.982,4.655,11.636,11.636,11.636h11.636
		v24.436c-30.255,2.327-57.018,13.964-77.964,32.582l-9.309-9.309l3.491-3.491c4.655-4.655,4.655-11.636,0-16.291
		s-11.636-4.655-16.291,0l-23.273,23.273c-4.655,4.655-4.655,11.636,0,16.291c2.327,2.327,5.818,3.491,8.145,3.491
		s5.818-1.164,8.145-3.491l3.491-3.491l9.309,9.309c-20.945,24.436-32.582,55.855-32.582,89.6
		c0,76.8,62.836,139.636,139.636,139.636s139.636-62.836,139.636-139.636c0-33.745-12.8-65.164-32.582-89.6L372.364,254.836z
		 M256,471.273c-64,0-116.364-52.364-116.364-116.364S192,238.545,256,238.545s116.364,52.364,116.364,116.364
		S320,471.273,256,471.273z"/>
</g>
<path style="fill:#D5DFEA;" d="M349.091,354.909H256l66.327-66.327C338.618,306.036,349.091,329.309,349.091,354.909z"/>
<path style="fill:#C9D5E3;" d="M349.091,354.909c0,25.6-10.473,48.873-26.764,66.327L256,354.909H349.091z"/>
<path style="fill:#E2E7F0;" d="M322.327,288.582L256,354.909v-93.091C281.6,261.818,304.873,272.291,322.327,288.582z"/>
<circle style="fill:#595A66;" cx="349.091" cy="354.909" r="11.636"/>
<path style="fill:#F04D4F;" d="M314.182,424.727c-3.491,0-5.818-1.164-8.145-3.491l-81.455-81.455
	c-4.655-4.655-4.655-11.636,0-16.291s11.636-4.655,16.291,0l81.455,81.455c4.655,4.655,4.655,11.636,0,16.291
	C320,423.564,317.673,424.727,314.182,424.727z"/>
<path style="fill:#DE333F;" d="M322.327,409.6c-2.327,2.327-5.818,3.491-8.145,3.491s-5.818-1.164-8.145-3.491l-81.455-81.455
	c-1.164-1.164-1.164-1.164-1.164-2.327c-2.327,4.655-2.327,10.473,1.164,13.964l81.455,81.455c2.327,2.327,5.818,3.491,8.145,3.491
	s5.818-1.164,8.145-3.491c3.491-3.491,4.655-9.309,1.164-13.964C323.491,408.436,323.491,408.436,322.327,409.6z"/>
<circle style="fill:#595A66;" cx="256" cy="354.909" r="23.273"/>
<path style="fill:#494A52;" d="M265.309,333.964c1.164,3.491,2.327,5.818,2.327,9.309c0,12.8-10.473,23.273-23.273,23.273
	c-3.491,0-6.982-1.164-9.309-2.327c3.491,8.145,11.636,13.964,20.945,13.964c12.8,0,23.273-10.473,23.273-23.273
	C279.273,345.6,273.455,337.455,265.309,333.964z"/>
<path style="fill:#D5DFEA;" d="M151.273,366.545c0-64,52.364-116.364,116.364-116.364c29.091,0,55.855,10.473,75.636,29.091
	c-20.945-24.436-52.364-40.727-87.273-40.727c-64,0-116.364,52.364-116.364,116.364c0,34.909,15.127,66.327,40.727,87.273
	C161.745,422.4,151.273,395.636,151.273,366.545z"/>
<g>
	<circle style="fill:#595A66;" cx="162.909" cy="354.909" r="11.636"/>
	<circle style="fill:#595A66;" cx="256" cy="261.818" r="11.636"/>
</g>
<path style="fill:#6F707E;" d="M256,215.273L256,215.273c-76.8,0-139.636,62.836-139.636,139.636l0,0
	c5.818,0,11.636-4.655,11.636-11.636c2.327-26.764,12.8-51.2,29.091-69.818c20.945-25.6,52.364-43.055,87.273-46.545
	C251.345,226.909,256,221.091,256,215.273z"/>
<g>
	<path style="fill:#494A52;" d="M384,354.909c0,37.236-15.127,69.818-40.727,93.091C320,468.945,289.745,482.909,256,482.909
		c-3.491,0-8.145,0-11.636-1.164c-5.818-1.164-11.636,3.491-11.636,10.473l0,0c8.145,1.164,15.127,2.327,23.273,2.327
		c38.4,0,73.309-15.127,98.909-40.727c25.6-25.6,40.727-60.509,40.727-98.909c0-8.145-1.164-15.127-2.327-23.273l0,0
		c-5.818,0-10.473,5.818-10.473,11.636C384,346.764,384,351.418,384,354.909z"/>
	<path style="fill:#494A52;" d="M256,192h-11.636v11.636H256v11.636c3.491,0,8.145,0,11.636,1.164v-12.8V192H256z"/>
</g>
<g>
	<path style="fill:#6F707E;" d="M238.545,168.727h23.273c3.491,0,5.818,2.327,5.818,5.818l0,0c0,3.491-2.327,5.818-5.818,5.818
		h-23.273c-3.491,0-5.818-2.327-5.818-5.818l0,0C232.727,171.055,235.055,168.727,238.545,168.727z"/>
	<circle style="fill:#6F707E;" cx="250.182" cy="349.091" r="5.818"/>
</g>
<g>
	<path style="fill:#494A52;" d="M157.091,256c2.327-2.327,5.818-5.818,8.145-8.145l-9.309-9.309l-16.291,16.291l9.309,9.309
		C152.436,261.818,154.764,259.491,157.091,256z"/>
	<path style="fill:#494A52;" d="M354.909,256c2.327,2.327,5.818,5.818,8.145,8.145l9.309-9.309l-16.291-16.291l-9.309,9.309
		C349.091,251.345,351.418,253.673,354.909,256z"/>
</g>
<g>
</g>
<g>
</g>
<g>
</g>
<g>
</g>
<g>
</g>
<g>
</g>
<g>
</g>
<g>
</g>
<g>
</g>
<g>
</g>
<g>
</g>
<g>
</g>
<g>
</g>
<g>
</g>
<g>
</g>
</svg>
