<?xml version="1.0" encoding="iso-8859-1"?>
<!-- Generator: Adobe Illustrator 19.0.0, SVG Export Plug-In . SVG Version: 6.00 Build 0)  -->
<svg version="1.1" id="Capa_1" xmlns="http://www.w3.org/2000/svg" xmlns:xlink="http://www.w3.org/1999/xlink" x="0px" y="0px"
	 viewBox="0 0 512 512" style="enable-background:new 0 0 512 512;" xml:space="preserve">
<path style="fill:#B0C4D8;" d="M488.727,488.727H23.273C10.473,488.727,0,478.255,0,465.455V186.182h512v279.273
	C512,478.255,501.527,488.727,488.727,488.727z"/>
<path style="fill:#ECEFF9;" d="M387.491,465.455H46.545c-12.8,0-23.273-10.473-23.273-23.273v-256h465.455v178.036
	c0,12.8-4.655,24.436-13.964,32.582l-54.691,54.691C411.927,460.8,400.291,465.455,387.491,465.455z"/>
<path style="fill:#4C9CD6;" d="M512,186.182H0V93.091c0-12.8,10.473-23.273,23.273-23.273h465.455
	c12.8,0,23.273,10.473,23.273,23.273V186.182z"/>
<path style="fill:#3689C9;" d="M488.727,69.818L488.727,69.818v69.818c0,12.8-10.473,23.273-23.273,23.273H23.273
	C10.473,162.909,0,173.382,0,186.182l0,0h512V93.091C512,80.291,501.527,69.818,488.727,69.818z"/>
<g>
	<circle style="fill:#4C9CD6;" cx="209.455" cy="267.636" r="23.273"/>
	<circle style="fill:#4C9CD6;" cx="302.545" cy="267.636" r="23.273"/>
	<circle style="fill:#4C9CD6;" cx="395.636" cy="267.636" r="23.273"/>
	<circle style="fill:#4C9CD6;" cx="116.364" cy="372.364" r="23.273"/>
	<circle style="fill:#4C9CD6;" cx="209.455" cy="372.364" r="23.273"/>
</g>
<circle style="fill:#F26A56;" cx="302.545" cy="372.364" r="23.273"/>
<rect x="23.273" y="186.182" style="fill:#C4D7E5;" width="465.455" height="23.273"/>
<polygon style="fill:#3689C9;" points="418.909,116.364 395.636,116.364 395.636,69.818 430.545,69.818 "/>
<circle style="fill:#1470B8;" cx="384" cy="116.364" r="34.909"/>
<path style="fill:#D5E3EF;" d="M488.727,349.091v15.127c0,12.8-4.655,24.436-13.964,32.582l-54.691,54.691
	c-9.309,9.309-20.945,13.964-32.582,13.964h-15.127c19.782,0,34.909-15.127,34.909-34.909v-34.909
	c0-6.982,4.655-11.636,11.636-11.636h34.909C473.6,384,488.727,368.873,488.727,349.091z"/>
<path style="fill:#99B4CD;" d="M500.364,186.182h-11.636v192c-2.327,3.491-4.655,5.818-6.982,9.309L422.4,446.836
	c-11.636,11.636-27.927,18.618-45.382,18.618h48.873c6.982,0,12.8-2.327,18.618-6.982l33.745-33.745l0,0
	c8.145-9.309,23.273-3.491,23.273,8.145v32.582c0,6.982-4.655,11.636-11.636,11.636H11.636c-3.491,0-6.982-1.164-9.309-2.327
	c3.491,8.145,11.636,13.964,20.945,13.964h465.455c12.8,0,23.273-10.473,23.273-23.273V186.182H500.364z"/>
<rect x="488.727" y="186.182" style="fill:#82A7C4;" width="23.273" height="23.273"/>
<rect y="186.182" style="fill:#99B4CD;" width="23.273" height="23.273"/>
<g>
	<path style="fill:#70B7E5;" d="M302.545,93.091h-93.091c-12.8,0-23.273-10.473-23.273-23.273l0,0h139.636l0,0
		C325.818,82.618,315.345,93.091,302.545,93.091z"/>
	<path style="fill:#70B7E5;" d="M69.818,93.091H58.182c-12.8,0-23.273-10.473-23.273-23.273l0,0h58.182l0,0
		C93.091,82.618,82.618,93.091,69.818,93.091z"/>
</g>
<path style="fill:#F6B545;" d="M384,139.636L384,139.636c-12.8,0-23.273-10.473-23.273-23.273V46.545
	c0-12.8,10.473-23.273,23.273-23.273l0,0c12.8,0,23.273,10.473,23.273,23.273v69.818C407.273,129.164,396.8,139.636,384,139.636z"/>
<polygon style="fill:#3689C9;" points="162.909,116.364 139.636,116.364 139.636,69.818 174.545,69.818 "/>
<circle style="fill:#1470B8;" cx="128" cy="116.364" r="34.909"/>
<path style="fill:#F6B545;" d="M128,139.636L128,139.636c-12.8,0-23.273-10.473-23.273-23.273V46.545
	c0-12.8,10.473-23.273,23.273-23.273l0,0c12.8,0,23.273,10.473,23.273,23.273v69.818C151.273,129.164,140.8,139.636,128,139.636z"/>
<g>
	<path style="fill:#F19920;" d="M139.636,46.545v62.836c0,4.655-1.164,8.145-4.655,11.636l0,0
		c-5.818,5.818-13.964,6.982-20.945,2.327c-5.818-3.491-9.309-10.473-9.309-18.618V115.2c0,11.636,8.145,22.109,19.782,24.436
		c15.127,2.327,26.764-9.309,26.764-23.273v-11.636V46.545C151.273,38.4,139.636,34.909,139.636,46.545z"/>
	<path style="fill:#F19920;" d="M395.636,46.545v62.836c0,4.655-1.164,8.145-4.655,11.636l0,0
		c-5.818,5.818-13.964,6.982-20.945,2.327c-5.818-3.491-9.309-10.473-9.309-18.618V115.2c0,11.636,8.145,22.109,19.782,24.436
		c15.127,2.327,26.764-9.309,26.764-23.273v-11.636V46.545C407.273,38.4,395.636,34.909,395.636,46.545z"/>
</g>
<g>
	<path style="fill:#FFCB5B;" d="M116.364,52.364v46.545c0,3.491-2.327,5.818-5.818,5.818l0,0c-3.491,0-5.818-2.327-5.818-5.818
		V52.364c0-3.491,2.327-5.818,5.818-5.818l0,0C114.036,46.545,116.364,48.873,116.364,52.364z"/>
	<path style="fill:#FFCB5B;" d="M372.364,52.364v46.545c0,3.491-2.327,5.818-5.818,5.818l0,0c-3.491,0-5.818-2.327-5.818-5.818
		V52.364c0-3.491,2.327-5.818,5.818-5.818l0,0C370.036,46.545,372.364,48.873,372.364,52.364z"/>
</g>
<g>
</g>
<g>
</g>
<g>
</g>
<g>
</g>
<g>
</g>
<g>
</g>
<g>
</g>
<g>
</g>
<g>
</g>
<g>
</g>
<g>
</g>
<g>
</g>
<g>
</g>
<g>
</g>
<g>
</g>
</svg>
