<?xml version="1.0" encoding="iso-8859-1"?>
<!-- Generator: Adobe Illustrator 19.0.0, SVG Export Plug-In . SVG Version: 6.00 Build 0)  -->
<svg version="1.1" id="Capa_1" xmlns="http://www.w3.org/2000/svg" xmlns:xlink="http://www.w3.org/1999/xlink" x="0px" y="0px"
	 viewBox="0 0 488.727 488.727" style="enable-background:new 0 0 488.727 488.727;" xml:space="preserve">
<path style="fill:#3689C9;" d="M139.636,151.273c-12.8,0-23.273,10.473-23.273,23.273v232.727v52.364
	c0,9.309,8.145,17.455,17.455,17.455l0,0c3.491,0,6.982-1.164,10.473-3.491l75.636-57.018c8.145-5.818,17.455-9.309,27.927-9.309
	h217.6c12.8,0,23.273-10.473,23.273-23.273V174.545c0-12.8-10.473-23.273-23.273-23.273H139.636z"/>
<path style="fill:#1470B8;" d="M465.455,151.273v221.091c0,6.982-4.655,11.636-11.636,11.636H224.582
	c-10.473,0-19.782,3.491-27.927,9.309l-75.636,57.018c-1.164,1.164-3.491,2.327-4.655,2.327v6.982
	c0,9.309,8.145,17.455,17.455,17.455c3.491,0,6.982-1.164,10.473-3.491l75.636-57.018c8.145-5.818,17.455-9.309,27.927-9.309h217.6
	c12.8,0,23.273-10.473,23.273-23.273V174.545C488.727,161.745,478.255,151.273,465.455,151.273z"/>
<g>
	<circle style="fill:#EAECED;" cx="302.545" cy="279.273" r="23.273"/>
	<circle style="fill:#EAECED;" cx="384" cy="279.273" r="23.273"/>
	<circle style="fill:#EAECED;" cx="221.091" cy="279.273" r="23.273"/>
</g>
<g>
	<path style="fill:#C9D5E3;" d="M393.309,258.327c1.164,3.491,2.327,5.818,2.327,9.309c0,12.8-10.473,23.273-23.273,23.273
		c-3.491,0-6.982-1.164-9.309-2.327c3.491,8.145,11.636,13.964,20.945,13.964c12.8,0,23.273-10.473,23.273-23.273
		C407.273,269.964,401.455,261.818,393.309,258.327z"/>
	<path style="fill:#C9D5E3;" d="M311.855,258.327c1.164,3.491,2.327,5.818,2.327,9.309c0,12.8-10.473,23.273-23.273,23.273
		c-3.491,0-6.982-1.164-9.309-2.327c3.491,8.145,11.636,13.964,20.945,13.964c12.8,0,23.273-10.473,23.273-23.273
		C325.818,269.964,320,261.818,311.855,258.327z"/>
	<path style="fill:#C9D5E3;" d="M230.4,258.327c1.164,3.491,2.327,5.818,2.327,9.309c0,12.8-10.473,23.273-23.273,23.273
		c-3.491,0-6.982-1.164-9.309-2.327c3.491,8.145,11.636,13.964,20.945,13.964c12.8,0,23.273-10.473,23.273-23.273
		C244.364,269.964,238.545,261.818,230.4,258.327z"/>
</g>
<path style="fill:#0261A5;" d="M232.727,221.091h-17.455l5.818-69.818h23.273v58.182
	C244.364,216.436,239.709,221.091,232.727,221.091z"/>
<path style="fill:#90C962;" d="M0,34.909v116.364c0,12.8,10.473,23.273,23.273,23.273h102.4c9.309,0,18.618,2.327,25.6,8.145
	l53.527,36.073c3.491,2.327,5.818,3.491,10.473,3.491l0,0c9.309,0,17.455-8.145,17.455-17.455v-30.255V34.909
	c0-12.8-10.473-23.273-23.273-23.273H23.273C10.473,11.636,0,22.109,0,34.909z"/>
<path style="fill:#71B956;" d="M209.455,11.636v128v29.091c0,9.309-8.145,17.455-17.455,17.455c-3.491,0-6.982-1.164-10.473-3.491
	l-32.582-24.436c-5.818-4.655-13.964-6.982-20.945-6.982H0c0,12.8,10.473,23.273,23.273,23.273h102.4
	c9.309,0,18.618,2.327,25.6,8.145l53.527,36.073c3.491,2.327,5.818,3.491,10.473,3.491c9.309,0,17.455-8.145,17.455-17.455v-30.255
	V34.909C232.727,22.109,222.255,11.636,209.455,11.636z"/>
<g>
	<circle style="fill:#EAECED;" cx="116.364" cy="93.091" r="11.636"/>
	<circle style="fill:#EAECED;" cx="69.818" cy="93.091" r="11.636"/>
	<circle style="fill:#EAECED;" cx="162.909" cy="93.091" r="11.636"/>
</g>
<path style="fill:#70B7E5;" d="M151.273,238.545v69.818c0,3.491-2.327,5.818-5.818,5.818l0,0c-3.491,0-5.818-2.327-5.818-5.818
	v-69.818c0-3.491,2.327-5.818,5.818-5.818l0,0C148.945,232.727,151.273,235.055,151.273,238.545z"/>
<path style="fill:#B2D890;" d="M23.273,52.364v34.909c0,3.491-2.327,5.818-5.818,5.818l0,0c-3.491,0-5.818-2.327-5.818-5.818V52.364
	c0-3.491,2.327-5.818,5.818-5.818l0,0C20.945,46.545,23.273,48.873,23.273,52.364z"/>
<path style="fill:#70B7E5;" d="M139.636,331.636L139.636,331.636c0-3.491,2.327-5.818,5.818-5.818l0,0
	c3.491,0,5.818,2.327,5.818,5.818l0,0c0,3.491-2.327,5.818-5.818,5.818l0,0C141.964,337.455,139.636,335.127,139.636,331.636z"/>
<g>
</g>
<g>
</g>
<g>
</g>
<g>
</g>
<g>
</g>
<g>
</g>
<g>
</g>
<g>
</g>
<g>
</g>
<g>
</g>
<g>
</g>
<g>
</g>
<g>
</g>
<g>
</g>
<g>
</g>
</svg>
