<svg id="Capa_1" enable-background="new 0 0 512 512" height="512" viewBox="0 0 512 512" width="512" xmlns="http://www.w3.org/2000/svg"><g><g><path d="m0 28.543h387.91v483.327h-387.91z" fill="#eaf4f4"/><path d="m193.95 28.543h193.96v483.327h-193.96z" fill="#cae8ea"/><path d="m104.76 0h178.29v90.017h-178.29z" fill="#186a81"/><g><g><path d="m118.63 337.414h150.64v29.992h-150.64z" fill="#cae8ea"/></g><g><path d="m98.57 277.929h190.86v29.992h-190.86z" fill="#cae8ea"/></g><g><path d="m163.87 397.399h60.16v29.992h-60.16z" fill="#cae8ea"/></g></g></g><path d="m512 448.846-47 63.154-47-63.154 47-39.99z" fill="#186a81"/><path d="m512 448.846-47 63.154v-103.144z" fill="#00465f"/><path d="m418 88.308h94v360.538h-94z" fill="#ffe26f"/><path d="m465 88.308h47v360.538h-47z" fill="#ffc271"/><path d="m250.7 164.988-56.75 56.746-12.98 12.976-43.67-43.659 21.21-21.214 22.46 22.454 12.98-12.977 35.54-35.53z" fill="#00dc7b"/><path d="m418 28.543h94v59.765h-94z" fill="#ff668e"/><g fill="#a7d2db"><path d="m194 397.399h30.03v29.992h-30.03z"/><path d="m194 337.414h75.27v29.992h-75.27z"/><path d="m194 277.929h95.43v29.992h-95.43z"/></g><path d="m250.7 164.988-56.75 56.746v-42.42l35.54-35.53z" fill="#00aa8e"/><path d="m193.95 0h89.1v90.017h-89.1z" fill="#00465f"/><path d="m465 28.543h47v59.765h-47z" fill="#e04496"/></g></svg>